<?xml version="1.0" standalone="no"?>
<!DOCTYPE svg PUBLIC "-//W3C//DTD SVG 20010904//EN"
 "http://www.w3.org/TR/2001/REC-SVG-20010904/DTD/svg10.dtd">
<svg version="1.0" xmlns="http://www.w3.org/2000/svg"
 width="400.000000pt" height="400.000000pt" viewBox="0 0 400.000000 400.000000"
 preserveAspectRatio="xMidYMid meet">
<metadata>
Created by potrace 1.11, written by Peter Selinger 2001-2013
</metadata>
<g transform="translate(0.000000,400.000000) scale(0.100000,-0.100000)"
fill="#000000" stroke="none">
<path d="M2205 3053 c-137 -25 -229 -64 -296 -126 -106 -98 -148 -194 -154
-353 -2 -57 12 -154 29 -199 21 -56 71 -155 78 -155 4 0 8 -5 8 -11 0 -6 13
-30 30 -53 l29 -43 -47 -34 c-74 -53 -244 -229 -280 -290 -40 -69 -72 -157
-76 -215 -3 -38 -10 -51 -47 -84 -178 -159 -437 -216 -616 -135 -201 91 -286
372 -176 588 30 60 105 136 163 164 81 41 235 57 296 32 94 -38 123 -56 175
-106 32 -31 61 -64 64 -74 7 -22 43 -25 59 -6 6 8 52 45 101 83 109 83 104 80
134 104 l23 19 -45 63 c-84 116 -152 175 -267 231 -120 58 -217 80 -355 80
-115 0 -179 -11 -279 -45 -145 -49 -262 -129 -357 -241 -60 -72 -136 -211
-155 -282 -42 -168 -41 -325 4 -470 78 -247 263 -434 512 -515 115 -38 163
-44 315 -44 113 0 141 3 215 27 98 30 228 91 307 144 l54 36 37 -35 c48 -44
110 -89 127 -92 7 -1 19 -7 26 -12 14 -11 121 -47 149 -50 8 -1 38 -7 65 -13
48 -10 259 -8 300 2 11 3 40 10 65 17 25 6 50 12 55 14 52 16 164 71 222 110
l53 35 61 -75 c33 -41 66 -74 72 -75 38 -3 477 -3 477 0 0 4 -110 142 -120
151 -4 4 -80 96 -143 175 -4 6 -23 28 -42 49 l-33 39 31 43 c18 23 52 72 77
108 25 36 48 65 53 66 4 0 7 5 7 10 0 6 24 43 53 83 30 39 70 96 90 124 l37
53 -244 0 -243 0 -61 -85 -60 -85 -58 73 c-32 39 -81 99 -109 133 -106 128
-130 157 -133 163 -1 3 34 40 79 81 169 156 243 306 233 474 -3 61 -9 109 -14
114 -1 1 -3 5 -4 10 -1 4 -11 28 -24 53 -54 110 -159 193 -291 228 -75 20
-190 32 -236 24z m106 -362 c51 -3 106 -106 87 -166 -21 -66 -50 -108 -115
-161 l-42 -34 -44 62 c-68 97 -83 165 -52 232 21 45 86 78 135 70 8 -1 22 -3
31 -3z m-80 -942 c41 -51 86 -106 100 -123 15 -17 61 -72 102 -122 l75 -91
-47 -30 c-96 -64 -184 -89 -282 -80 -148 15 -240 113 -235 248 4 92 28 127
191 279 6 5 13 9 16 10 3 0 39 -41 80 -91z"/>
<path d="M3535 1350 c-71 -21 -127 -102 -127 -181 1 -111 81 -191 192 -191
101 -1 181 76 187 180 4 67 -20 117 -77 163 -39 31 -121 45 -175 29z"/>
</g>
</svg>
